#!OML:ASF I:\Actors\actors\Patient Classification 1\Patient 1\Session 1\Subject1.ASF
:FULLY-SPECIFIED
:DEGREES
809
root 0.450757 18.5594 8.46757 10.2227 18.6412 -10.9507
lowerback 3.25584 3.66722 -1.37121
upperback -3.93637 4.73763 -1.90301
thorax -5.85736 2.36491 -1.60299
lowerneck -0.0165905 -11.8076 -15.716
upperneck 14.7206 -19.5938 25.6187
head 8.82958 -9.01889 9.49165
rclavicle -6.75868e-015 1.59028e-014
rhumerus -41.1911 12.8298 -96.8706
rradius 143.957
rwrist -47.6261
rhand 69.9658 -73.3533
rfingers 7.12502
rthumb 73.6514 -5.38237
lclavicle -6.75868e-015 1.59028e-014
lhumerus -42.9631 -20.0779 106.143
lradius 141.626
lwrist 56.2306
lhand 76.7911 -6.58805
lfingers 7.12502
lthumb 70.0032 -987.687
rfemur 0 0 0
rtibia 0
rfoot 0 0
rtoes 0
lfemur -32.1231 -54.7087 11.6734
ltibia 26.956
lfoot -37.3181 47.6954
ltoes -57.9523
810
root 0.475657 18.5597 8.44666 10.3304 19.1061 -10.5843
lowerback 3.06214 3.47698 -1.23354
upperback -3.79765 4.53122 -1.23764
thorax -5.64534 2.27312 -0.954047
lowerneck -0.0866457 -11.6023 -15.7941
upperneck 14.765 -19.0911 24.7104
head 8.62471 -8.81524 9.23117
rclavicle 1.39348e-013 0
rhumerus -40.3724 14.2659 -96.3087
rradius 143.84
rwrist -48.1073
rhand 69.4989 -71.8001
rfingers 7.12502
rthumb 73.828 -5.31107
lclavicle 1.39348e-013 0
lhumerus -43.0134 -20.1649 105.784
lradius 142.224
lwrist 56.2267
lhand 76.1168 -6.9704
lfingers 7.12502
lthumb 70.4367 -988.741
rfemur 0 0 0
rtibia 0
rfoot 0 0
rtoes 0
lfemur -32.1748 -53.8002 11.0564
ltibia 26.8599
lfoot -35.4944 46.9285
ltoes -58.3126
811
root 0.502585 18.5601 8.42338 10.4419 19.5592 -10.2309
lowerback 3.03069 3.29486 -0.816405
upperback -3.74509 4.33965 -0.703377
thorax -5.58209 2.17348 -0.613646
lowerneck -0.170358 -11.4169 -15.8232
upperneck 14.9865 -18.6839 23.9243
head 8.52273 -8.64146 9.00341
rclavicle 6.30147e-014 1.59028e-014
rhumerus -39.7102 15.1242 -96.0072
rradius 143.762
rwrist -48.3301
rhand 69.3631 -70.7074
rfingers 7.12502
rthumb 73.8773 -4.65541
lclavicle 6.30147e-014 1.59028e-014
lhumerus -42.5762 -19.4568 105.85
lradius 141.82
lwrist 55.9629
lhand 77.3976 -7.33552
lfingers 7.12502
lthumb 69.6025 -985.702
rfemur 0 0 0
rtibia 0
rfoot 0 0
rtoes 0
lfemur -32.2861 -53.0455 10.5213
ltibia 26.768
lfoot -34.0189 46.1728
ltoes -58.5246
812
root 0.532504 18.5621 8.39928 10.4943 20.0178 -9.81925
lowerback 3.44443 3.26334 0.150453
upperback -3.86171 4.36549 -0.485462
thorax -5.88533 2.14851 -0.95761
lowerneck -0.152369 -11.3667 -15.7699
upperneck 15.3458 -18.512 23.134
head 8.49877 -8.57749 8.73463
rclavicle -5.32743e-014 -5.88403e-014
rhumerus -39.4636 14.4207 -96.1352
rradius 143.864
rwrist -48.129
rhand 69.8699 -71.6102
rfingers 7.12502
rthumb 73.6886 -3.94084
lclavicle -5.32743e-014 -5.88403e-014
lhumerus -43.1 -19.9211 105.58
lradius 142.097
lwrist 55.9786
lhand 77.3709 -7.19772
lfingers 7.12502
lthumb 69.6203 -985.893
rfemur 0 0 0
rtibia 0
rfoot 0 0
rtoes 0
lfemur -32.2834 -52.4071 9.82481
ltibia 26.6759
lfoot -32.4999 45.4893
ltoes -58.7814
813
root 0.563085 18.566 8.37278 10.5771 20.5376 -9.41377
lowerback 3.57881 3.11058 0.895779
upperback -3.81268 4.23714 0.0353971
thorax -5.89822 2.06518 -0.827932
lowerneck -0.204865 -11.238 -15.7754
upperneck 15.5528 -18.1066 21.9431
head 8.35005 -8.43072 8.35363
rclavicle -5.92378e-014 2.54444e-014
rhumerus -39.1802 13.6186 -96.1553
rradius 144.103
rwrist -47.718
rhand 70.7497 -74.1536
rfingers 7.12502
rthumb 73.3302 -3.76963
lclavicle -5.92378e-014 2.54444e-014
lhumerus -43.3579 -20.0459 105.469
lradius 142.326
lwrist 55.9832
lhand 77.0514 -6.70536
lfingers 7.12502
lthumb 69.8324 -987.032
rfemur 0 0 0
rtibia 0
rfoot 0 0
rtoes 0
lfemur -32.2677 -51.5541 9.07594
ltibia 26.5573
lfoot -30.7741 44.6142
ltoes -59.1197
814
root 0.593241 18.5708 8.34231 10.6975 21.0594 -8.97393
lowerback 3.50974 2.89289 1.39562
upperback -3.59503 4.01205 0.77596
thorax -5.65353 1.9534 -0.309518
lowerneck -0.281056 -11.0055 -15.8346
upperneck 15.4403 -17.4692 20.6159
head 8.05297 -8.19619 7.96129
rclavicle 1.31198e-014 3.18055e-015
rhumerus -38.3921 14.524 -95.4357
rradius 144.09
rwrist -47.7357
rhand 70.709 -73.6046
rfingers 7.12502
rthumb 73.3477 -3.34359
lclavicle 1.31198e-014 3.18055e-015
lhumerus -43.1774 -19.7986 105.557
lradius 142.287
lwrist 55.9902
lhand 76.7936 -6.46364
lfingers 7.12502
lthumb 70.0015 -987.806
rfemur 0 0 0
rtibia 0
rfoot 0 0
rtoes 0
lfemur -32.1717 -50.4159 8.18063
ltibia 26.3978
lfoot -28.9817 43.4328
ltoes -59.4475
815
root 0.62296 18.5758 8.30851 10.8455 21.5362 -8.47858
lowerback 3.29224 2.62056 1.62413
upperback -3.22016 3.69361 1.70075
thorax -5.18854 1.81284 0.566098
lowerneck -0.508136 -10.7187 -15.9714
upperneck 15.2237 -16.7028 19.1377
head 7.73355 -7.90766 7.54154
rclavicle 3.7123e-014 1.70955e-014
rhumerus -37.6383 15.0336 -94.9838
rradius 144.215
rwrist -47.9317
rhand 70.6534 -74.432
rfingers 7.12502
rthumb 73.3713 -4.33935
lclavicle 3.7123e-014 1.70955e-014
lhumerus -42.7808 -19.3423 105.723
lradius 142.249
lwrist 55.9429
lhand 76.4242 -6.31612
lfingers 7.12502
lthumb 70.2406 -988.732
rfemur 0 0 0
rtibia 0
rfoot 0 0
rtoes 0
lfemur -32.0495 -49.2375 7.21337
ltibia 26.2033
lfoot -27.3179 42.119
ltoes -59.7104
816
root 0.648643 18.5808 8.27007 11.0418 21.9985 -8.03772
lowerback 3.63855 2.59746 2.7191
upperback -3.21707 3.7589 2.05469
thorax -5.34006 1.80963 0.301738
lowerneck -0.467659 -10.6933 -15.8967
upperneck 15.2904 -16.4387 17.8631
head 7.57168 -7.84305 7.11732
rclavicle -2.03319e-014 1.24737e-014
rhumerus -37.2548 15.5264 -94.6579
rradius 144.152
rwrist -47.8856
rhand 70.3521 -72.7138
rfingers 7.12502
rthumb 73.4969 -3.5418
lclavicle -2.03319e-014 1.24737e-014
lhumerus -43.1135 -19.9003 105.713
lradius 142.262
lwrist 56.007
lhand 76.1321 -6.18049
lfingers 7.12502
lthumb 70.427 -989.497
rfemur 0 0 0
rtibia 0
rfoot 0 0
rtoes 0
lfemur -32.0358 -48.0352 6.40242
ltibia 25.9874
lfoot -25.7377 40.7915
ltoes -59.9887
817
root 0.671058 18.5846 8.22691 11.2355 22.4381 -7.66704
lowerback 3.84743 2.51017 3.60528
upperback -3.07394 3.73106 2.60541
thorax -5.29482 1.77587 0.375406
lowerneck -0.593149 -10.6532 -15.7963
upperneck 15.2913 -16.0932 16.3742
head 7.39061 -7.74446 6.62199
rclavicle 7.91163e-014 4.19436e-014
rhumerus -36.7859 15.9067 -94.3198
rradius 144.121
rwrist -47.7313
rhand 70.5256 -72.2058
rfingers 7.12502
rthumb 73.4251 -2.50199
lclavicle 7.91163e-014 4.19436e-014
lhumerus -43.1772 -20.2867 105.744
lradius 142.249
lwrist 55.9493
lhand 75.8889 -6.23094
lfingers 7.12502
lthumb 70.5802 -989.98
rfemur 0 0 0
rtibia 0
rfoot 0 0
rtoes 0
lfemur -32.1282 -47.0457 5.79215
ltibia 25.7822
lfoot -24.3489 39.6957
ltoes -60.271
818
root 0.691621 18.5868 8.18431 11.3911 22.7816 -7.3398
lowerback 3.90142 2.3798 4.22832
upperback -2.76819 3.62237 3.3483
thorax -5.02185 1.72238 0.811837
lowerneck -0.756363 -10.5311 -15.7821
upperneck 15.0202 -15.5976 14.8644
head 7.11928 -7.5845 6.15687
rclavicle 3.11098e-014 3.97569e-016
rhumerus -36.2507 16.4784 -93.8651
rradius 144.226
rwrist -47.8719
rhand 70.1888 -71.9346
rfingers 7.12502
rthumb 73.5631 -3.26752
lclavicle 3.11098e-014 3.97569e-016
lhumerus -42.9556 -20.4469 105.757
lradius 142.238
lwrist 55.816
lhand 75.7216 -6.26891
lfingers 7.12502
lthumb 70.6846 -1169.69
rfemur 0 0 0
rtibia 0
rfoot 0 0
rtoes 0
lfemur -32.2506 -46.4015 5.3242
ltibia 25.6057
lfoot -23.3709 38.9005
ltoes -60.448
819
root 0.707103 18.5871 8.145 11.5486 22.9822 -7.01414
lowerback 3.80152 2.20361 4.49096
upperback -2.36434 3.41626 4.22924
thorax -4.58849 1.64009 1.60685
lowerneck -0.925686 -10.3348 -15.7585
upperneck 14.6593 -14.9853 13.233
head 6.80458 -7.37462 5.67202
rclavicle -2.60408e-014 9.54166e-015
rhumerus -35.5649 17.445 -93.32
rradius 144.28
rwrist -48.2505
rhand 69.7019 -72.1061
rfingers 7.12502
rthumb 73.7526 -4.96872
lclavicle -2.60408e-014 9.54166e-015
lhumerus -42.5036 -20.3117 105.741
lradius 142.191
lwrist 55.6729
lhand 75.6462 -6.35414
lfingers 7.12502
lthumb 70.7313 -1169.6
rfemur 0 0 0
rtibia 0
rfoot 0 0
rtoes 0
lfemur -32.7248 -46.8804 5.39999
ltibia 25.4364
lfoot -22.9742 39.3083
ltoes -60.5804
820
root 0.71757 18.587 8.11132 11.8615 23.0635 -6.54913
lowerback 4.1834 2.27064 5.26222
upperback -2.40734 3.60004 4.46763
thorax -4.82384 1.70676 1.39737
lowerneck -0.926578 -10.3969 -15.5045
upperneck 14.8257 -14.861 11.822
head 6.71306 -7.37587 5.18205
rclavicle 1.98785e-015 -2.78299e-014
rhumerus -35.5414 17.4259 -93.459
rradius 144.263
rwrist -48.3315
rhand 69.6592 -72.6437
rfingers 7.12502
rthumb 73.7687 -5.64228
lclavicle 1.98785e-015 -2.78299e-014
lhumerus -42.7674 -21.0138 105.626
lradius 142.122
lwrist 55.8419
lhand 75.1381 -6.65731
lfingers 7.12502
lthumb 71.0419 -1168.74
rfemur 0 0 0
rtibia 0
rfoot 0 0
rtoes 0
lfemur -33.2484 -47.2321 5.38818
ltibia 25.2442
lfoot -22.662 39.6874
ltoes -60.7083
821
root 0.725332 18.5868 8.08631 12.4417 23.0875 -5.93027
lowerback 3.94907 2.17522 5.23846
upperback -2.33605 3.46765 4.87552
thorax -4.64612 1.65514 1.85593
lowerneck -1.2072 -10.3411 -15.213
upperneck 15.1604 -14.5508 10.3935
head 6.69737 -7.27932 4.69133
rclavicle -2.88238e-014 7.15625e-014
rhumerus -35.356 17.9788 -93.4781
rradius 144.089
rwrist -48.487
rhand 69.9983 -73.1195
rfingers 7.12502
rthumb 73.6386 -5.04649
lclavicle -2.88238e-014 7.15625e-014
lhumerus -42.6519 -21.0805 105.494
lradius 142.003
lwrist 56.0732
lhand 74.2589 -6.93127
lfingers 7.12502
lthumb 71.5592 -1166.92
rfemur 0 0 0
rtibia 0
rfoot 0 0
rtoes 0
lfemur -33.9904 -47.4881 5.42704
ltibia 25.0305
lfoot -22.5582 39.9398
ltoes -60.7361
822
root 0.730742 18.5855 8.07227 13.0934 23.0424 -5.30141
lowerback 4.06989 2.21082 5.71649
upperback -2.66028 3.57104 4.68669
thorax -5.01607 1.67656 1.37803
lowerneck -1.1472 -10.3434 -14.8479
upperneck 15.7742 -14.4891 9.59255
head 6.78939 -7.27564 4.38401
rclavicle -8.64713e-014 -5.88403e-014
rhumerus -35.738 17.7011 -94.1931
rradius 143.879
rwrist -48.4751
rhand 70.367 -73.9184
rfingers 7.12502
rthumb 73.4908 -4.7005
lclavicle -8.64713e-014 -5.88403e-014
lhumerus -43.1517 -21.641 105.152
lradius 141.936
lwrist 56.4109
lhand 73.6701 -6.82689
lfingers 7.12502
lthumb 71.8906 -1165.34
rfemur 0 0 0
rtibia 0
rfoot 0 0
rtoes 0
lfemur -34.7256 -47.6685 5.4751
ltibia 24.8244
lfoot -22.6856 40.0835
ltoes -60.6708
823
root 0.733552 18.5827 8.07084 13.6014 22.925 -4.79399
lowerback 3.88991 2.13185 5.87869
upperback -2.7568 3.45945 4.57655
thorax -5.00047 1.61248 1.18846
lowerneck -1.35536 -10.2357 -14.3537
upperneck 16.2902 -14.2639 8.92258
head 6.87594 -7.17257 4.10484
rclavicle 4.51241e-014 4.29375e-014
rhumerus -35.7715 17.7491 -94.855
rradius 143.618
rwrist -48.6832
rhand 70.292 -75.0197
rfingers 7.12502
rthumb 73.5214 -6.03298
lclavicle 4.51241e-014 4.29375e-014
lhumerus -43.3211 -21.7807 104.787
lradius 141.872
lwrist 56.4942
lhand 73.5272 -6.37565
lfingers 7.12502
lthumb 71.9691 -1164.52
rfemur 0 0 0
rtibia 0
rfoot 0 0
rtoes 0
lfemur -35.2152 -47.8199 5.45738
ltibia 24.6643
lfoot -22.8382 40.2414
ltoes -60.6068
